2.2Hzhigh3min_grf.mot
version=1
nRows=15
nColumns 19
inDegrees=yes
endheader
time	1_ground_force_vx	1_ground_force_vy	1_ground_force_vz	1_ground_force_px	1_ground_force_py	1_ground_force_pz	1_ground_torque_x	1_ground_torque_y	1_ground_torque_z	2_ground_force_vx	2_ground_force_vy	2_ground_force_vz	2_ground_force_px	2_ground_force_py	2_ground_force_pz	2_ground_torque_x	2_ground_torque_y	2_ground_torque_z
            1.253500	            0.183893	           -0.361282	            0.181423	           -0.233013	            0.005581	           -0.255695	            0.123580	           -0.138053	           -0.105856	           -0.004008	            1.105057	           -0.042986	           -0.232311	            0.006130	           -0.833667	           -0.206486	           -0.038691	            0.037653
            1.254000	            0.000033	           -0.180266	           -0.000773	           -0.233013	            0.005581	           -0.255695	            0.168846	           -0.082755	           -0.094758	            0.092227	            0.369807	           -0.327222	           -0.232311	            0.006130	           -0.833667	           -0.093790	           -0.038150	           -0.000095
            1.254500	            0.183438	           -0.360496	           -0.002001	           -0.233013	            0.005581	           -0.255695	            0.112939	           -0.046192	            0.026151	           -0.091144	           -0.736095	           -0.237229	           -0.232311	            0.006130	           -0.833667	           -0.168881	           -0.048008	            0.037604
            1.255000	           -0.091995	           -0.179694	           -0.138113	           -0.233013	            0.005581	           -0.255695	            0.174967	           -0.000094	            0.014460	            0.045438	            0.369135	           -0.186418	           -0.232311	            0.006130	           -0.833667	           -0.094062	            0.028288	           -0.075260
            1.255500	           -0.046104	            0.180650	           -0.090825	           -0.233013	            0.005581	           -0.255695	            0.266472	           -0.073678	           -0.059333	            0.047350	           -0.182640	           -0.376102	           -0.232311	            0.006130	           -0.833667	           -0.187820	           -0.000947	            0.075481
            1.256000	            0.275318	           -0.180606	            0.090256	           -0.233013	            0.005581	           -0.255695	            0.071143	           -0.036508	           -0.063791	            0.001268	           -0.367795	           -0.142098	           -0.232311	            0.006130	           -0.833667	           -0.093815	           -0.037948	           -0.056646
            1.256500	            0.321033	           -0.721001	           -0.003888	           -0.233013	            0.005581	           -0.255695	            0.150461	           -0.110341	           -0.081128	           -0.046912	            0.000333	           -0.140764	           -0.232311	            0.006130	           -0.833667	           -0.150035	           -0.075963	           -0.056757
            1.257000	            0.458088	            0.000678	           -0.138706	           -0.233013	            0.005581	           -0.255695	            0.155784	           -0.110121	           -0.112898	            0.139179	            0.369139	           -0.092602	           -0.232311	            0.006130	           -0.833667	           -0.206426	           -0.057530	            0.018736
            1.257500	            0.091587	            0.540815	            0.002091	           -0.233013	            0.005581	           -0.255695	            0.130705	           -0.063992	           -0.147093	           -0.093117	           -0.183817	           -0.188330	           -0.232311	            0.006130	           -0.833667	           -0.206461	           -0.038893	            0.094204
            1.258000	            0.137673	            1.081031	            0.141864	           -0.233013	            0.005581	           -0.255695	            0.199620	            0.000671	           -0.126254	            0.044150	            0.737097	           -0.091248	           -0.232311	            0.006130	           -0.833667	           -0.225356	           -0.019719	            0.000028
            1.258500	            0.274489	            0.001036	           -0.229962	           -0.233013	            0.005581	           -0.255695	            0.103431	            0.009785	           -0.082477	           -0.231714	           -0.736435	           -0.284097	           -0.232311	            0.006130	           -0.833667	           -0.112636	           -0.019380	            0.018831
            1.259000	            0.091704	           -0.720848	           -0.049175	           -0.233013	            0.005581	           -0.255695	            0.265016	           -0.064209	           -0.090989	           -0.090397	           -0.920913	           -0.050174	           -0.232311	            0.006130	           -0.833667	           -0.150146	           -0.038353	           -0.000071
            1.259500	            0.045777	            0.360540	            0.001432	           -0.233013	            0.005581	           -0.255695	            0.131284	           -0.074062	            0.038895	           -0.091000	           -0.737266	            0.091268	           -0.232311	            0.006130	           -0.833667	           -0.244133	           -0.019854	            0.018887
            1.260000	            0.046152	            0.179685	            0.138227	           -0.233013	            0.005581	           -0.255695	            0.181481	           -0.091889	           -0.111685	            0.093700	            0.000338	           -0.000040	           -0.232311	            0.006130	           -0.833667	           -0.206502	           -0.038557	           -0.000047
            1.260500	            0.091833	           -0.180445	            0.044855	           -0.233013	            0.005581	           -0.255695	            0.054263	           -0.055003	           -0.090445	            0.047391	           -0.182975	           -0.282246	           -0.232311	            0.006130	           -0.833667	           -0.150095	           -0.057124	           -0.037839
